<svg xmlns="http://www.w3.org/2000/svg" width="149" height="22" viewBox="0 0 149 22" fill="none"><path d="M8.72336 22C7.54369 22 6.39506 21.8886 5.27748 21.6657C4.18059 21.4632 3.17683 21.1796 2.26621 20.8149C1.37628 20.4503 0.62088 20.0552 0 19.6298L2.0489 15.8315C2.73187 16.2974 3.45623 16.7026 4.22198 17.047C5.00843 17.3711 5.82592 17.6243 6.67446 17.8066C7.52299 17.9687 8.37153 18.0497 9.22006 18.0497C10.1514 18.0497 10.9482 17.9484 11.6104 17.7458C12.2934 17.5433 12.8108 17.2597 13.1626 16.895C13.5352 16.5304 13.7214 16.0847 13.7214 15.558C13.7214 15.0718 13.5248 14.6768 13.1316 14.3729C12.7384 14.0691 12.221 13.8158 11.5794 13.6133C10.9585 13.3904 10.2652 13.1777 9.49946 12.9751C8.73371 12.7726 7.95761 12.5396 7.17116 12.2762C6.40541 11.9926 5.70174 11.6482 5.06017 11.2431C4.43929 10.8177 3.93224 10.2808 3.53901 9.63259C3.14579 8.98434 2.94918 8.17403 2.94918 7.20165C2.94918 5.74309 3.35275 4.47698 4.15989 3.40331C4.98773 2.32965 6.14671 1.49908 7.63682 0.911601C9.12693 0.303867 10.8757 0 12.8833 0C14.3527 0 15.7393 0.162062 17.0431 0.486187C18.347 0.790054 19.4646 1.23573 20.3959 1.8232L18.5022 5.59116C17.6744 5.0442 16.7534 4.63904 15.7393 4.37569C14.7252 4.09208 13.68 3.95027 12.6039 3.95027C11.6311 3.95027 10.793 4.06169 10.0893 4.28453C9.40633 4.50736 8.87858 4.82136 8.50605 5.22652C8.15422 5.61141 7.9783 6.05709 7.9783 6.56353C7.9783 7.06998 8.16457 7.48526 8.5371 7.80939C8.93032 8.11325 9.44772 8.37661 10.0893 8.59944C10.7309 8.80202 11.4345 9.0046 12.2003 9.20718C12.966 9.40975 13.7318 9.64272 14.4975 9.90607C15.2633 10.1694 15.967 10.5037 16.6085 10.9088C17.2501 11.314 17.7675 11.8306 18.1607 12.4586C18.554 13.0663 18.7506 13.8361 18.7506 14.7679C18.7506 16.2265 18.3366 17.5028 17.5088 18.5967C16.681 19.6703 15.5116 20.5111 14.0008 21.1188C12.5107 21.7063 10.7516 22 8.72336 22Z" fill="#FFDF55"/><path d="M32.3694 22C30.1549 22 28.2406 21.6151 26.6263 20.8453C25.0327 20.0553 23.8013 18.9714 22.932 17.5939C22.0628 16.1961 21.6282 14.5856 21.6282 12.7624C21.6282 10.9595 21.949 9.27808 22.5906 7.71823C23.2528 6.15838 24.1738 4.81123 25.3535 3.67679C26.5538 2.5221 27.9715 1.62063 29.6065 0.972375C31.2622 0.324125 33.1041 0 35.1323 0C37.0778 0 38.7955 0.324125 40.2856 0.972375C41.7757 1.62063 42.9037 2.55248 43.6694 3.76795L40.0373 6.68508C39.4785 5.87477 38.7645 5.2569 37.8952 4.83149C37.026 4.40607 35.9912 4.19337 34.7908 4.19337C33.5698 4.19337 32.4625 4.40607 31.4691 4.83149C30.4757 5.23664 29.6168 5.82412 28.8925 6.59392C28.1888 7.34346 27.6507 8.22467 27.2782 9.23756C26.9057 10.2505 26.7194 11.3241 26.7194 12.4586C26.7194 13.5322 26.9574 14.4742 27.4334 15.2845C27.9094 16.0746 28.6027 16.6924 29.5134 17.1381C30.424 17.5838 31.5209 17.8066 32.804 17.8066C33.9216 17.8066 34.9668 17.6142 35.9395 17.2293C36.9122 16.8241 37.7918 16.1961 38.5782 15.3453L41.5584 18.3232C40.4202 19.6197 39.0646 20.5617 37.4917 21.1492C35.9395 21.7164 34.2321 22 32.3694 22Z" fill="#FFDF55"/><path d="M43.7128 21.6354L48.059 0.36464H56.9065C59.6177 0.36464 61.708 0.941988 63.1774 2.09668C64.6675 3.25138 65.4126 4.872 65.4126 6.95856C65.4126 8.74125 64.978 10.291 64.1087 11.6077C63.2602 12.9042 62.0391 13.907 60.4455 14.616C58.8727 15.325 57.01 15.6795 54.8576 15.6795H47.7796L50.4183 13.5221L48.773 21.6354H43.7128ZM57.6826 21.6354L53.2433 13.9171H58.5208L62.9911 21.6354H57.6826ZM50.2942 14.0994L48.5557 11.7597H55.0439C56.7203 11.7597 58.0138 11.395 58.9244 10.6657C59.8557 9.9162 60.3214 8.83241 60.3214 7.41436C60.3214 6.38121 59.9592 5.62154 59.2348 5.13535C58.5312 4.62891 57.5378 4.37569 56.2546 4.37569H50.1389L52.7777 1.97514L50.2942 14.0994Z" fill="#FFDF55"/><path d="M73.7743 8.9337L100.764 8.9306L99.9879 12.7593L72.9982 12.7624L73.7743 8.9337ZM72.3463 17.6851L100.733 17.682L99.8947 21.6323L66.5411 21.6354L70.8872 0.36464L103.837 0.361548L102.999 4.31182L75.0782 4.31491L72.3463 17.6851Z" fill="#FFDF55"/><path d="M111.129 8.9306H121.591L120.815 12.7593H110.353L111.129 8.9306ZM109.701 17.682H121.56L120.722 21.6323H103.896L108.242 0.361548H124.665L123.826 4.31182H112.433L109.701 17.682Z" fill="#FFDF55"/><path d="M124.724 21.6323L129.07 0.361548H133.23L142.574 15.7676L140.929 15.6765L144.033 0.361548H149L144.654 21.6323H140.525L131.15 6.22619L132.826 6.31735L129.691 21.6323H124.724Z" fill="#FFDF55"/></svg>